<?xml version="1.0" encoding="UTF-8" standalone="no"?><!DOCTYPE svg PUBLIC "-//W3C//DTD SVG 1.1//EN" "http://www.w3.org/Graphics/SVG/1.1/DTD/svg11.dtd"><svg width="100%" height="100%" viewBox="0 0 1067 1221" version="1.1" xmlns="http://www.w3.org/2000/svg" xmlns:xlink="http://www.w3.org/1999/xlink" xml:space="preserve" xmlns:serif="http://www.serif.com/" style="fill-rule:evenodd;clip-rule:evenodd;stroke-linejoin:round;stroke-miterlimit:2;"><rect x="150.275" y="173.394" width="787.349" height="695.344" style="fill:#ebebeb;"/><g><path d="M941.714,0l-816.762,0c-68.876,0 -124.952,56.076 -124.952,125.562l0,824.076c0,69.486 56.076,125.562 124.952,125.562l691.2,0l-32.304,-112.762l78.019,72.533l73.752,68.267l131.048,115.81l-0,-1093.49c-0,-69.486 -56.077,-125.562 -124.953,-125.562Zm-235.276,796.038c0,0 -21.943,-26.209 -40.228,-49.371c79.847,-22.553 110.323,-72.534 110.323,-72.534c-24.99,16.457 -48.762,28.038 -70.095,35.962c-30.476,12.8 -59.733,21.334 -88.381,26.21c-58.514,10.971 -112.152,7.924 -157.867,-0.61c-34.742,-6.705 -64.609,-16.457 -89.6,-26.209c-14.019,-5.486 -29.257,-12.191 -44.495,-20.724c-1.828,-1.219 -3.657,-1.829 -5.485,-3.048c-1.22,-0.609 -1.829,-1.219 -2.439,-1.828c-10.971,-6.096 -17.066,-10.362 -17.066,-10.362c-0,-0 29.257,48.762 106.666,71.924c-18.285,23.162 -40.838,50.59 -40.838,50.59c-134.704,-4.267 -185.904,-92.648 -185.904,-92.648c-0,-196.266 87.771,-355.352 87.771,-355.352c87.771,-65.828 171.276,-64 171.276,-64l6.095,7.314c-109.714,31.696 -160.304,79.848 -160.304,79.848c-0,0 13.409,-7.314 35.962,-17.676c65.219,-28.648 117.028,-36.572 138.361,-38.4c3.658,-0.61 6.705,-1.219 10.362,-1.219c37.181,-4.876 79.238,-6.095 123.124,-1.219c57.905,6.704 120.076,23.771 183.467,58.514c-0,-0 -48.153,-45.714 -151.772,-77.41l8.534,-9.752c-0,0 83.505,-1.828 171.276,64c-0,0 87.771,159.086 87.771,355.352c0,0 -51.809,88.381 -186.514,92.648Zm-283.428,-284.648c-34.743,0 -62.172,30.477 -62.172,67.658c0,37.181 28.038,67.657 62.172,67.657c34.742,-0 62.171,-30.476 62.171,-67.657c0.609,-37.181 -27.429,-67.658 -62.171,-67.658m222.476,0c-34.743,0 -62.172,30.477 -62.172,67.658c0,37.181 28.038,67.657 62.172,67.657c34.743,-0 62.171,-30.476 62.171,-67.657c0,-37.181 -27.428,-67.658 -62.171,-67.658" style="fill:#7289da;fill-rule:nonzero;"/></g></svg>